# Blender v2.80 (sub 75) OBJ File: ''
# www.blender.org
o Cube
v 0.100000 1.000000 -0.100000
v 0.100000 0.000000 -0.100000
v 0.100000 1.000000 0.100000
v 0.100000 0.000000 0.100000
v -0.100000 1.000000 -0.100000
v -0.100000 0.000000 -0.100000
v -0.100000 1.000000 0.100000
v -0.100000 0.000000 0.100000

vt 0.000000 0.000000
vt 0.000000 1.000000
vt 1.000000 0.000000
vt 1.000000 1.000000
vt 0.000000 0.800000
vt 1.000000 0.800000
vt 0.000000 0.200000
vt 1.000000 0.200000

vn 0.0000 1.0000 0.0000
vn 0.0000 0.0000 1.0000
vn -1.0000 0.0000 0.0000
vn 0.0000 -1.0000 0.0000
vn 1.0000 0.0000 0.0000
vn 0.0000 0.0000 -1.0000
s off
f 1/5/1 5/2/1 7/4/1 3/6/1
f 4/1/2 3/2/2 7/4/2 8/3/2
f 8/1/3 7/2/3 5/4/3 6/3/3
f 6/1/4 2/7/4 4/8/4 8/3/4
f 2/1/5 1/2/5 3/4/5 4/3/5
f 6/1/6 5/2/6 1/4/6 2/3/6
